<svg width="48" height="50" viewBox="0 0 48 50" fill="none" xmlns="http://www.w3.org/2000/svg">
<path d="M40.8271 0C42.6649 3.89825e-05 44.4056 0.762711 45.6719 2.08301C46.9344 3.39965 47.6269 5.16374 47.627 6.98242V24.9141C47.6269 26.7329 46.9346 28.4978 45.6719 29.8145C44.4057 31.1347 42.6648 31.8964 40.8271 31.8965H34.8955C34.5831 31.8967 34.269 31.9874 33.9883 32.1689C33.7064 32.3512 33.4651 32.6215 33.3037 32.96L33.2998 32.9668L25.8838 48.4102C25.4626 49.2868 24.5712 49.8395 23.5986 49.8271C22.191 49.809 20.8092 49.4597 19.5586 48.8096C18.3085 48.1597 17.2247 47.228 16.3828 46.0928C15.5413 44.9579 14.9618 43.6463 14.6807 42.2578C14.3995 40.8693 14.4227 39.433 14.749 38.0547L16.1826 31.8965H6.79883C5.72552 31.8964 4.67114 31.6351 3.7207 31.1396C2.77083 30.6444 1.95416 29.9311 1.33008 29.0635C0.70629 28.1962 0.289792 27.1966 0.106445 26.1455C-0.0767859 25.0947 -0.0225773 24.0137 0.264648 22.9863H0.263672L5.27246 5.05469V5.05371C5.67295 3.62223 6.51398 2.34524 7.68848 1.42676C8.86481 0.507014 10.3101 3.10039e-05 11.8076 0H40.8271ZM11.8076 5C11.445 5.00003 11.0804 5.12238 10.7686 5.36621C10.4548 5.61158 10.2084 5.97071 10.0879 6.40137L5.08008 24.3311L5.0791 24.332C4.99284 24.6404 4.97676 24.9679 5.03223 25.2861C5.0877 25.6043 5.2126 25.8974 5.38965 26.1436C5.56635 26.3892 5.78845 26.5789 6.03223 26.7061C6.27544 26.8328 6.53761 26.8964 6.79883 26.8965H19.3311C20.0936 26.8965 20.8148 27.2447 21.2891 27.8418C21.7632 28.439 21.9393 29.2202 21.7666 29.9629L19.6162 39.1982L19.6143 39.207C19.4546 39.8811 19.4434 40.5856 19.5811 41.2656C19.7187 41.9455 20.0008 42.5777 20.3994 43.1152C20.7977 43.6522 21.301 44.0797 21.8652 44.373C21.9751 44.4301 22.0878 44.4799 22.2012 44.5264L28.793 30.8027C29.3435 29.6505 30.198 28.6661 31.2734 27.9707C31.5529 27.79 31.844 27.6307 32.1445 27.4941V5H11.8076ZM37.1445 26.8965H40.8271C41.2696 26.8964 41.7163 26.7142 42.0625 26.3535C42.4121 25.989 42.6269 25.4727 42.627 24.9141V6.98242C42.6269 6.42378 42.412 5.90748 42.0625 5.54297C41.7164 5.18229 41.2696 5.00004 40.8271 5H37.1445V26.8965Z" fill="#4F545B"/>
</svg>
