<svg width="48" height="50" viewBox="0 0 48 50" fill="none" xmlns="http://www.w3.org/2000/svg">
<path d="M40.8271 0C42.6649 3.89825e-05 44.4056 0.762711 45.6719 2.08301C46.9344 3.39965 47.6269 5.16374 47.627 6.98242V24.9141C47.6269 26.7329 46.9346 28.4978 45.6719 29.8145C44.4057 31.1347 42.6648 31.8964 40.8271 31.8965H34.8955C34.5831 31.8967 34.269 31.9874 33.9883 32.1689C33.7064 32.3512 33.4651 32.6215 33.3037 32.96L33.2998 32.9668L25.8838 48.4102C25.4626 49.2868 24.5712 49.8395 23.5986 49.8271C22.191 49.809 20.8092 49.4597 19.5586 48.8096C18.3085 48.1597 17.2247 47.228 16.3828 46.0928C15.5413 44.9579 14.9618 43.6463 14.6807 42.2578C14.3995 40.8693 14.4227 39.433 14.749 38.0547L16.1826 31.8965H6.79883C5.72552 31.8964 4.67114 31.6351 3.7207 31.1396C2.77083 30.6444 1.95416 29.9311 1.33008 29.0635C0.70629 28.1962 0.289792 27.1966 0.106445 26.1455C-0.0767859 25.0947 -0.0225773 24.0137 0.264648 22.9863H0.263672L5.27246 5.05469V5.05371C5.67295 3.62223 6.51398 2.34524 7.68848 1.42676C8.86481 0.507014 10.3101 3.10039e-05 11.8076 0H40.8271Z" fill="#4F545B"/>
</svg>
