<svg width="86" height="73" viewBox="0 0 86 73" fill="none" xmlns="http://www.w3.org/2000/svg">
<path d="M59.2334 0.00177002C61.6292 0.024936 63.9647 0.765475 65.9316 2.13068C67.8759 3.48023 69.3697 5.37916 70.2197 7.5838H70.2207L75.1875 19.7117L80.8896 14.0682C82.0671 12.9026 83.9662 12.9122 85.1318 14.0897C86.2973 15.2672 86.2878 17.1663 85.1104 18.3318L79.8818 23.5057C83.5398 25.5601 86 29.5032 86 33.9988V51.9988C86 57.5946 82.1893 62.3347 77 63.6404V69.9988C77 71.6557 75.6569 72.9988 74 72.9988C72.3432 72.9988 71 71.6557 71 69.9988V63.9988H15V69.9988C15 71.6557 13.6569 72.9988 12 72.9988C10.3432 72.9988 9 71.6557 9 69.9988V63.6404C3.81076 62.3346 0 57.5946 0 51.9988V33.9988C2.64302e-05 29.5035 2.45972 25.5602 6.11719 23.5057L0.889648 18.3318C-0.28776 17.1663 -0.297329 15.2672 0.868164 14.0897C2.03375 12.9122 3.93284 12.9026 5.11035 14.0682L10.7949 19.6961L15.7607 7.40802C16.6641 5.1715 18.2338 3.26668 20.2549 1.94513C22.2566 0.636263 24.6081 -0.0389842 27 0.00177002V0.000793457H59.2041L59.2334 0.00177002ZM11.8887 27.9988C8.6715 27.999 6.00004 30.65 6 33.9988V51.9988C6 55.3477 8.67148 57.9987 11.8887 57.9988H74.1113C77.3286 57.9987 80 55.3477 80 51.9988V33.9988C80 30.65 77.3285 27.999 74.1113 27.9988H11.8887ZM27.0635 40.0008C28.7203 40.0008 30.0635 41.3439 30.0635 43.0008C30.0632 44.6574 28.7202 46.0008 27.0635 46.0008H27C25.3435 46.0006 24.0003 44.6573 24 43.0008C24 41.3441 25.3433 40.001 27 40.0008H27.0635ZM58.1807 40.0008C59.8373 40.0011 61.1807 41.3441 61.1807 43.0008C61.1804 44.6573 59.8371 46.0005 58.1807 46.0008H58.1172C56.4605 46.0008 55.1175 44.6574 55.1172 43.0008C55.1172 41.3439 56.4603 40.0008 58.1172 40.0008H58.1807ZM26.9316 6.00079C25.7249 5.9734 24.5404 6.31123 23.5381 6.96661C22.5987 7.58091 21.8624 8.44515 21.4102 9.45197L21.3242 9.65509L16.3369 21.9988H69.6406L64.668 9.85724C64.6575 9.8317 64.6474 9.80591 64.6377 9.78009C64.2249 8.68623 63.4844 7.73588 62.5098 7.05939C61.5958 6.42517 60.5168 6.06033 59.3994 6.00763L59.1758 6.00079H26.9316Z" fill="#373B61"/>
</svg>
