<svg width="47" height="50" viewBox="0 0 47 50" fill="none" xmlns="http://www.w3.org/2000/svg">
<path d="M23.6572 0.000183105C25.0481 0.0181763 26.4132 0.3647 27.6484 1.008C28.8832 1.65108 29.9534 2.57214 30.7842 3.69452C31.6146 4.81654 32.1866 6.11353 32.4639 7.48553C32.7404 8.85411 32.7162 10.2692 32.3965 11.6281L32.3984 11.6291L30.998 17.6555H40.166C41.2288 17.6555 42.2733 17.9142 43.2139 18.4055C44.1537 18.8964 44.9604 19.6041 45.5771 20.4631C46.1936 21.3217 46.6051 22.3109 46.7861 23.3508C46.9671 24.3906 46.9147 25.4609 46.6309 26.4777L41.709 44.132H41.708C41.3126 45.5483 40.4827 46.8127 39.3213 47.7228C38.1577 48.6345 36.7271 49.1379 35.2441 49.1379H13.5068C13.5007 49.1379 13.4945 49.1389 13.4883 49.1389C13.4823 49.1389 13.4757 49.1379 13.4697 49.1379H6.72461C4.90515 49.1378 3.18344 48.382 1.93164 47.0744C0.683443 45.7704 0.00011936 44.0238 0 42.2248V24.5695C5.17262e-05 22.7703 0.683316 21.023 1.93164 19.7189C3.18343 18.4114 4.90524 17.6556 6.72461 17.6555H12.5547C12.8523 17.6552 13.152 17.5689 13.4209 17.3947C13.6909 17.2198 13.9233 16.9593 14.0791 16.632L14.083 16.6252L21.3711 1.41913L21.4551 1.25897C21.9034 0.474831 22.7447 -0.0114528 23.6572 0.000183105ZM18.5918 18.7863C18.0479 19.9266 17.2033 20.9019 16.1396 21.591C16.0898 21.6233 16.0389 21.6539 15.9883 21.6848V44.1379H35.2441C35.5895 44.1379 35.9382 44.0216 36.2373 43.7873C36.5383 43.5515 36.7761 43.2053 36.8926 42.7883L41.8145 25.134V25.133C41.8978 24.8343 41.914 24.5165 41.8604 24.2082C41.8067 23.9001 41.6861 23.6166 41.5156 23.3791C41.3454 23.142 41.1318 22.959 40.8984 22.8371C40.6657 22.7156 40.415 22.6555 40.166 22.6555H27.8506C27.0881 22.6555 26.3668 22.3072 25.8926 21.7101C25.4186 21.1132 25.2427 20.3325 25.415 19.59L27.5273 10.4973L27.5303 10.4875C27.6858 9.82881 27.6968 9.14025 27.5625 8.47577C27.4282 7.81121 27.153 7.19377 26.7646 6.66913C26.3766 6.14499 25.8872 5.72817 25.3389 5.44257C25.2445 5.3934 25.1478 5.34984 25.0508 5.30878L18.5918 18.7863ZM6.72461 22.6555C6.30341 22.6556 5.87561 22.8295 5.54297 23.1769C5.20683 23.5282 5.00005 24.0278 5 24.5695V42.2248C5.00012 42.7663 5.20699 43.2652 5.54297 43.6164C5.87563 43.9639 6.30337 44.1378 6.72461 44.1379H10.9883V22.6555H6.72461Z" fill="#4F545B"/>
</svg>
