<svg width="47" height="50" viewBox="0 0 47 50" fill="none" xmlns="http://www.w3.org/2000/svg">
<path d="M23.6572 0.000183105C25.0481 0.0181763 26.4132 0.3647 27.6484 1.008C28.8832 1.65108 29.9534 2.57214 30.7842 3.69452C31.6146 4.81654 32.1866 6.11353 32.4639 7.48553C32.7404 8.85411 32.7162 10.2692 32.3965 11.6281L32.3984 11.6291L30.998 17.6555H40.166C41.2288 17.6555 42.2733 17.9142 43.2139 18.4055C44.1537 18.8964 44.9604 19.6041 45.5771 20.4631C46.1936 21.3217 46.6051 22.3109 46.7861 23.3508C46.9671 24.3906 46.9147 25.4609 46.6309 26.4777L41.709 44.132H41.708C41.3126 45.5483 40.4827 46.8127 39.3213 47.7228C38.1577 48.6345 36.7271 49.1379 35.2441 49.1379H13.5068C13.5007 49.1379 13.4945 49.1389 13.4883 49.1389C13.4823 49.1389 13.4757 49.1379 13.4697 49.1379H6.72461C4.90515 49.1378 3.18344 48.382 1.93164 47.0744C0.683443 45.7704 0.00011936 44.0238 0 42.2248V24.5695C5.17262e-05 22.7703 0.683316 21.023 1.93164 19.7189C3.18343 18.4114 4.90524 17.6556 6.72461 17.6555H12.5547C12.8523 17.6552 13.152 17.5689 13.4209 17.3947C13.6909 17.2198 13.9233 16.9593 14.0791 16.632L14.083 16.6252L21.3711 1.41913L21.4551 1.25897C21.9034 0.474831 22.7447 -0.0114528 23.6572 0.000183105Z" fill="#4F545B"/>
</svg>
