<svg width="87" height="87" viewBox="0 0 87 87" fill="none" xmlns="http://www.w3.org/2000/svg">
<path d="M68 76C68 69.6348 65.4188 63.5303 60.8241 59.0294C56.2295 54.5286 49.9978 52 43.5 52C37.0022 52 30.7705 54.5286 26.1759 59.0294C21.5812 63.5303 19 69.6348 19 76" stroke="#373B61" stroke-width="6" stroke-linecap="round" stroke-linejoin="round"/>
<path d="M43.5 52C52.6127 52 60 44.6127 60 35.5C60 26.3873 52.6127 19 43.5 19C34.3873 19 27 26.3873 27 35.5C27 44.6127 34.3873 52 43.5 52Z" stroke="#373B61" stroke-width="6" stroke-linecap="round" stroke-linejoin="round"/>
<path d="M43.5 84C65.8675 84 84 65.8675 84 43.5C84 21.1325 65.8675 3 43.5 3C21.1325 3 3 21.1325 3 43.5C3 65.8675 21.1325 84 43.5 84Z" stroke="#373B61" stroke-width="6" stroke-linecap="round" stroke-linejoin="round"/>
</svg>
